<svg width="24" height="24" viewBox="0 0 24 24" fill="none" xmlns="http://www.w3.org/2000/svg">
<g clip-path="url(#clip0_14693_5692)">
<path d="M1.97803 17.7414L11.9942 23.5245L22.0103 17.7414V6.17515L11.9942 0.392029L1.97803 6.17515V17.7414Z" fill="#469EA2"/>
<path d="M10.9688 1.77521L3.69514 5.97244C3.70706 6.10333 3.70706 6.23504 3.69514 6.36593L10.9568 10.5632C11.2554 10.3424 11.6169 10.2233 11.9882 10.2233C12.3596 10.2233 12.7211 10.3424 13.0197 10.5632L20.2814 6.36593C20.2694 6.23504 20.2694 6.10333 20.2814 5.97244L13.0316 1.77521C12.733 1.99596 12.3715 2.11509 12.0002 2.11509C11.6289 2.11509 11.2673 1.99596 10.9688 1.77521ZM20.9849 7.52255L13.7113 11.7675C13.7507 12.1356 13.6727 12.5069 13.4886 12.8281C13.3044 13.1493 13.0234 13.4041 12.6858 13.5561L12.6977 21.9028C12.8153 21.9547 12.9272 22.0186 13.0316 22.0936L20.2933 17.8964C20.2539 17.5282 20.3318 17.157 20.516 16.8358C20.7001 16.5146 20.9811 16.2598 21.3187 16.1078V7.71334C21.2025 7.65883 21.0908 7.59503 20.9849 7.52255ZM3.00355 7.57025C2.89916 7.64523 2.78727 7.70917 2.66968 7.76103V16.1555C3.01144 16.3021 3.29628 16.5558 3.48125 16.8785C3.66622 17.2011 3.74129 17.5751 3.69514 17.9441L10.9568 22.1413C11.0612 22.0663 11.1731 22.0024 11.2907 21.9505V13.5561C10.9489 13.4095 10.6641 13.1557 10.4791 12.8331C10.2942 12.5105 10.2191 12.1365 10.2652 11.7675L3.00355 7.57025Z" fill="#6ACAD1"/>
<path d="M11.9942 1.64492L20.949 6.81991V17.158L11.9942 22.333L3.03926 17.158V6.80799L11.9942 1.64492ZM11.9942 0.416748L1.97803 6.19987V17.7661L11.9942 23.5492L22.0103 17.7661V6.19987L11.9942 0.416748Z" fill="#469EA2"/>
<path d="M12.0657 13.9257H11.9226C11.6766 13.9264 11.4329 13.8784 11.2055 13.7845C10.978 13.6907 10.7714 13.5528 10.5975 13.3788C10.4235 13.2049 10.2856 12.9982 10.1918 12.7708C10.0979 12.5434 10.0499 12.2997 10.0505 12.0537V11.9106C10.0499 11.6646 10.0979 11.4208 10.1918 11.1934C10.2856 10.966 10.4235 10.7594 10.5975 10.5854C10.7714 10.4115 10.978 10.2736 11.2055 10.1797C11.4329 10.0859 11.6766 10.0379 11.9226 10.0385H12.0657C12.3117 10.0379 12.5554 10.0859 12.7828 10.1797C13.0103 10.2736 13.2169 10.4115 13.3908 10.5854C13.5648 10.7594 13.7027 10.966 13.7965 11.1934C13.8904 11.4208 13.9384 11.6646 13.9378 11.9106V12.0537C13.9384 12.2997 13.8904 12.5434 13.7965 12.7708C13.7027 12.9982 13.5648 13.2049 13.3908 13.3788C13.2169 13.5528 13.0103 13.6907 12.7828 13.7845C12.5554 13.8784 12.3117 13.9264 12.0657 13.9257Z" fill="#469EA2"/>
<path d="M12.0657 21.6167H11.9226C11.5901 21.6157 11.2632 21.7036 10.976 21.8713C10.6888 22.039 10.4516 22.2805 10.2891 22.5706L11.9942 23.5484L13.6993 22.5706C13.5367 22.2805 13.2996 22.039 13.0124 21.8713C12.7251 21.7036 12.3983 21.6157 12.0657 21.6167Z" fill="#469EA2"/>
<path d="M22.0222 15.8336H21.9507C21.7047 15.8329 21.461 15.8809 21.2335 15.9748C21.0061 16.0686 20.7995 16.2065 20.6256 16.3805C20.4516 16.5544 20.3137 16.7611 20.2199 16.9885C20.126 17.2159 20.078 17.4596 20.0786 17.7056V17.8487C20.0769 18.1665 20.1592 18.4791 20.3171 18.7549L22.0222 17.7652V15.8336Z" fill="#469EA2"/>
<path d="M20.3171 5.22125C20.1606 5.49762 20.0784 5.80986 20.0786 6.12747V6.27056C20.078 6.51658 20.126 6.7603 20.2198 6.98771C20.3137 7.21512 20.4516 7.42175 20.6255 7.59571C20.7995 7.76967 21.0061 7.90754 21.2335 8.0014C21.4609 8.09526 21.7047 8.14325 21.9507 8.14262H22.0222V6.19902L20.3171 5.22125Z" fill="#469EA2"/>
<path d="M11.9942 0.415894L10.2891 1.39366C10.4509 1.68537 10.6875 1.92865 10.9747 2.09842C11.2618 2.2682 11.5891 2.35832 11.9226 2.3595H12.0657C12.3983 2.3605 12.7251 2.27259 13.0124 2.10488C13.2996 1.93716 13.5367 1.69573 13.6993 1.40558L11.9942 0.415894Z" fill="#469EA2"/>
<path d="M3.68315 5.20929L1.97803 6.19898V8.14258H2.04957C2.29559 8.14321 2.53931 8.09522 2.76672 8.00136C2.99413 7.9075 3.20076 7.76963 3.37472 7.59567C3.54868 7.42171 3.68655 7.21508 3.78041 6.98767C3.87427 6.76026 3.92226 6.51654 3.92163 6.27052V6.12743C3.91759 5.8066 3.83576 5.49154 3.68315 5.20929Z" fill="#469EA2"/>
<path d="M2.04957 15.8336H1.97803V17.7652L3.68315 18.7549C3.83968 18.4786 3.92185 18.1663 3.92163 17.8487V17.7056C3.92226 17.4596 3.87427 17.2159 3.78041 16.9885C3.68655 16.7611 3.54868 16.5544 3.37472 16.3805C3.20076 16.2065 2.99413 16.0686 2.76672 15.9748C2.53931 15.8809 2.29559 15.8329 2.04957 15.8336Z" fill="#469EA2"/>
<path d="M11.9942 23.608V12.0298L1.97803 6.2467V17.8249L11.9942 23.608Z" fill="#083B54" fill-opacity="0.15"/>
<path d="M22.0222 17.7175V6.15131L12.0061 11.9344V23.5126L22.0222 17.7175Z" fill="#083B54" fill-opacity="0.05"/>
</g>
<defs>
<clipPath id="clip0_14693_5692">
<rect width="24" height="24" fill="white"/>
</clipPath>
</defs>
</svg>
