<svg width="24" height="24" viewBox="0 0 24 24" fill="none" xmlns="http://www.w3.org/2000/svg">
<g clip-path="url(#clip0_3619_97334)">
<path d="M0 6.62069C0 2.96418 2.96418 0 6.62069 0H17.3793C21.0358 0 24 2.96418 24 6.62069V17.3793C24 21.0358 21.0358 24 17.3793 24H6.62069C2.96418 24 0 21.0358 0 17.3793V6.62069Z" fill="#D5FF5C"/>
<path fill-rule="evenodd" clip-rule="evenodd" d="M17.2595 13.0615C17.4358 13.4452 17.9549 13.5807 18.2536 13.2822L18.8014 12.7346C19.3675 12.1688 20.2853 12.1688 20.8514 12.7346C21.4174 13.3004 21.4174 14.2178 20.8514 14.7836L16.4239 19.209C15.3603 20.471 13.7676 21.2727 11.9876 21.2727C10.1313 21.2727 8.47878 20.4008 7.41755 19.0444L3.15503 14.7838C2.58895 14.218 2.58895 13.3007 3.15503 12.7349C3.72111 12.169 4.6389 12.169 5.20497 12.7349L5.7445 13.2741C6.03669 13.5662 6.54397 13.4348 6.71655 13.0595C6.75064 12.9854 6.7692 12.9058 6.7692 12.8242L6.76917 6.20451C6.76917 5.40433 7.41815 4.75566 8.2187 4.75566C9.01928 4.75566 9.66823 5.40434 9.66823 6.20451V9.55327C9.66823 9.84142 9.96356 10.037 10.2384 9.9502C10.4124 9.89523 10.5381 9.73693 10.5381 9.55454V4.17613C10.5381 3.37595 11.1871 2.72727 11.9876 2.72727C12.7882 2.72727 13.4372 3.37595 13.4372 4.17613V9.55466C13.4372 9.73699 13.5628 9.89526 13.7367 9.9502C14.0115 10.037 14.3068 9.84148 14.3068 9.55341V6.20451C14.3068 5.40433 14.9557 4.75566 15.7563 4.75566C16.5568 4.75566 17.2058 5.40434 17.2058 6.20451V12.8215C17.2058 12.9047 17.2247 12.9858 17.2595 13.0615V13.0615Z" fill="#FD4848"/>
<path fill-rule="evenodd" clip-rule="evenodd" d="M9.80239 14.155C9.56836 14.3011 9.34617 14.4614 9.13837 14.6274C8.92218 15.0573 8.80047 15.5429 8.80047 16.0569C8.80047 16.5707 8.92212 17.0562 9.13821 17.486C9.34594 17.6519 9.56805 17.8122 9.802 17.9582C9.3589 17.4494 9.0906 16.7844 9.0906 16.0569C9.0906 15.3291 9.35906 14.6639 9.80239 14.155ZM14.1806 17.954C14.414 17.8078 14.6356 17.6476 14.8428 17.4819C15.0576 17.053 15.1784 16.569 15.1784 16.0569C15.1784 15.5445 15.0575 15.0604 14.8426 14.6315C14.6353 14.4657 14.4137 14.3055 14.1802 14.1593C14.6213 14.6677 14.8883 15.3311 14.8883 16.0569C14.8883 16.7824 14.6215 17.4457 14.1806 17.954ZM14.3704 13.9364C13.6741 13.4941 12.859 13.159 11.9879 13.159C10.707 13.159 9.54737 13.8835 8.70796 14.6079C8.40337 14.8708 8.1177 15.1534 7.84976 15.4521C7.69363 15.6255 7.57087 15.774 7.48623 15.8805C7.43945 15.9387 7.39326 15.9974 7.34766 16.0566C7.39288 16.1155 7.43871 16.1739 7.48513 16.2317C7.56032 16.3264 7.66585 16.4546 7.79834 16.604C8.08103 16.9241 8.38398 17.226 8.70796 17.5056C9.54737 18.2301 10.707 18.9545 11.9879 18.9545C12.8592 18.9545 13.6744 18.6193 14.3709 18.1769C14.37 18.1778 14.3692 18.1787 14.3683 18.1797C14.826 17.8895 15.2326 17.5528 15.5702 17.2343C15.5705 17.2334 15.5708 17.2326 15.5711 17.2317C15.7196 17.0915 15.8547 16.9548 15.975 16.8272C15.9749 16.8281 15.9747 16.8289 15.9746 16.8297C16.3897 16.3897 16.6282 16.0568 16.6282 16.0568C16.6282 16.0568 16.6282 16.0568 16.6281 16.0567C16.6281 16.0567 16.6281 16.0566 16.6281 16.0566C16.6278 16.0562 16.6275 16.0558 16.6271 16.0553C16.6094 16.0308 16.3735 15.7069 15.9745 15.2839C15.9747 15.2847 15.9748 15.2854 15.975 15.2862C15.8547 15.1586 15.7195 15.022 15.571 14.8817C15.5707 14.8809 15.5705 14.8801 15.5702 14.8793C15.2325 14.5608 14.8259 14.2241 14.3682 13.9338C14.3689 13.9347 14.3697 13.9355 14.3704 13.9364ZM15.7049 15.4231C15.7398 15.6291 15.758 15.8409 15.758 16.0568C15.758 16.2727 15.7398 16.4844 15.7049 16.6904C15.8327 16.5572 15.9448 16.4327 16.0395 16.3232C16.0452 16.2352 16.0481 16.1463 16.0481 16.0568C16.0481 15.9673 16.0452 15.8784 16.0395 15.7903C15.9448 15.6808 15.8326 15.5563 15.7049 15.4231ZM7.93961 16.327C8.03442 16.4365 8.1467 16.561 8.2746 16.6941C8.23928 16.487 8.22089 16.2741 8.22089 16.0568C8.22089 15.8395 8.23929 15.6266 8.27463 15.4193C8.14673 15.5525 8.03443 15.677 7.93962 15.7865C7.93374 15.8759 7.93075 15.966 7.93075 16.0568C7.93075 16.1476 7.93374 16.2377 7.93961 16.327ZM9.67024 16.0569C9.67024 14.7766 10.7086 13.7387 11.9895 13.7387C13.2704 13.7387 14.3087 14.7766 14.3087 16.0569C14.3087 17.3371 13.2704 18.375 11.9895 18.375C10.7086 18.375 9.67024 17.3371 9.67024 16.0569ZM11.9895 14.0287C10.8688 14.0287 9.96038 14.9367 9.96038 16.0569C9.96038 17.177 10.8688 18.085 11.9895 18.085C13.1102 18.085 14.0186 17.177 14.0186 16.0569C14.0186 14.9367 13.1102 14.0287 11.9895 14.0287ZM11.9894 14.6081C11.1889 14.6081 10.5399 15.2568 10.5399 16.0569C10.5399 16.8571 11.1889 17.5058 11.9894 17.5058C12.79 17.5058 13.439 16.8571 13.439 16.0569C13.439 15.2568 12.79 14.6081 11.9894 14.6081ZM10.83 16.0569C10.83 15.4169 11.3491 14.8981 11.9894 14.8981C12.6297 14.8981 13.1488 15.4169 13.1488 16.0569C13.1488 16.6969 12.6297 17.2158 11.9894 17.2158C11.3491 17.2158 10.83 16.6969 10.83 16.0569ZM11.9895 16.6363C12.3097 16.6363 12.5693 16.3769 12.5693 16.0568C12.5693 15.7367 12.3097 15.4773 11.9895 15.4773C11.6693 15.4773 11.4097 15.7367 11.4097 16.0568C11.4097 16.3769 11.6693 16.6363 11.9895 16.6363Z" fill="#D5FF5C"/>
</g>
<defs>
<clipPath id="clip0_3619_97334">
<rect width="24" height="24" fill="white"/>
</clipPath>
</defs>
</svg>
